<svg width="517" height="453" viewBox="0 0 517 453" fill="none" xmlns="http://www.w3.org/2000/svg">
<path d="M62.5 12.6288H179.5L120 163.629H197" stroke="white" stroke-width="8"/>
<path d="M64 49.6288H123.5L63 200.629H197.5" stroke="white" stroke-width="8"/>
<path d="M278.5 9.62878V121.629" stroke="white" stroke-width="8"/>
<path d="M283.5 180.629C285.346 167.79 272.81 157.498 261 158.129C244.283 157.437 237.473 169.865 239 180.629C238.848 187.692 245.764 198.481 261 199.629C273.131 199.652 283.56 189.53 283.5 180.629Z" stroke="white" stroke-width="8"/>
<path d="M240.5 9.12878V122.629" stroke="white" stroke-width="8"/>
<path d="M464.5 13.6288C391.511 -18.1349 323.159 42.9633 332 112.629C336.032 183.841 408.797 219.684 464.5 190.629M460.5 54.1288C412.877 28.5374 369.425 62.3535 372 106.629C371.16 152.648 422.456 176.197 460.5 152.629" stroke="white" stroke-width="8"/>
<path d="M0 261.629H141" stroke="white" stroke-width="8"/>
<path d="M1 298.629H52V449.129" stroke="white" stroke-width="8"/>
<path d="M138.5 298.129H90.5V449.129" stroke="white" stroke-width="8"/>
<path d="M170.5 447.629L248.5 259.129L327.5 447.629" stroke="white" stroke-width="8"/>
<path d="M248.5 356.629L263.5 392.129H233.5" stroke="white" stroke-width="8"/>
<path d="M212.5 446.629L221 429.629H279L286.5 446.629" stroke="white" stroke-width="8"/>
<path d="M509.5 262.629C400.996 235.238 363.221 311.464 367 356.129C374.312 453.341 471.247 460.966 512.5 436.129V351.129" stroke="white" stroke-width="8"/>
<path d="M502 302.629C450.389 280.591 403.28 313.316 407 353.629C408.938 399.217 447.981 415.101 474 410.629V353.629" stroke="white" stroke-width="8"/>
</svg>
